<svg width="177" height="161" viewBox="0 0 177 161" fill="none" xmlns="http://www.w3.org/2000/svg">
<path d="M169 80.5C169 119.844 133.689 153 88.5 153C43.3109 153 8 119.844 8 80.5C8 41.1558 43.3109 8 88.5 8C133.689 8 169 41.1558 169 80.5Z" stroke="white" stroke-width="16"/>
<path fill-rule="evenodd" clip-rule="evenodd" d="M66 10C66 6.68629 68.6863 4 72 4H104.521C107.835 4 110.521 6.68629 110.521 10V65.5802C110.521 68.894 107.835 71.5802 104.521 71.5802H72C68.6863 71.5802 66 68.894 66 65.5802V10ZM82.2786 43.4581C79.3986 44.4019 77.0079 45.9989 75.4235 47.9967C73.6112 50.2817 72.9676 52.9402 73.539 55.5014C74.1133 58.0758 75.8998 60.4764 78.672 62.2179C81.4452 63.96 84.9795 64.8961 88.6257 64.8225C92.2721 64.7489 95.7319 63.6714 98.3738 61.8249C101.013 59.9799 102.626 57.52 103.02 54.9334C103.414 52.3564 102.589 49.7203 100.612 47.5009C98.8883 45.5654 96.3888 44.0657 93.45 43.2375C93.1949 43.1656 92.8739 43.3051 92.7557 43.6468C92.6314 44.0058 92.8387 44.516 93.3652 44.7003C95.4055 45.4145 97.1998 46.5552 98.5205 48.038C100.261 49.9914 101.061 52.4129 100.689 54.8506C100.318 57.2787 98.8267 59.4544 96.593 61.0157C94.3615 62.5754 91.5053 63.4465 88.5515 63.5061C85.5975 63.5658 82.6902 62.8111 80.3617 61.3483C78.0322 59.885 76.3991 57.7816 75.8631 55.3791C75.3242 52.9635 75.9542 50.5058 77.5656 48.474C78.7727 46.952 80.4649 45.7479 82.4257 44.9505C82.9628 44.732 83.1469 44.19 82.9953 43.83C82.8554 43.4979 82.5297 43.3758 82.2786 43.4581ZM81.9672 42.5078C82.758 42.2487 83.5939 42.6749 83.9169 43.4419C84.3205 44.4004 83.7658 45.485 82.8024 45.8768C80.9771 46.6191 79.434 47.7274 78.3491 49.0954C76.9079 50.9126 76.3717 53.0663 76.8391 55.1614C77.3065 57.2565 78.746 59.1524 80.8936 60.5015C83.0412 61.8507 85.7529 62.5624 88.5314 62.5063C91.3098 62.4502 93.9686 61.63 96.0201 60.1961C98.0716 58.7622 99.3782 56.8108 99.7004 54.6998C100.022 52.5887 99.3385 50.4597 97.7738 48.7031C96.5814 47.3644 94.9384 46.3105 93.0348 45.6441C92.0743 45.3079 91.4778 44.2814 91.8107 43.3197C92.0861 42.5239 92.9106 42.0466 93.7212 42.275C96.8144 43.1467 99.4893 44.7367 101.359 46.8357C103.511 49.2519 104.452 52.1805 104.009 55.0842C103.566 57.9879 101.769 60.6722 98.9467 62.6445C96.1248 64.6169 92.4676 65.7451 88.6459 65.8223C84.8241 65.8995 81.0941 64.9204 78.14 63.0647C75.186 61.2089 73.2059 58.601 72.563 55.7192C71.9201 52.8374 72.6576 49.8749 74.64 47.3753C76.365 45.2002 78.9321 43.5024 81.9672 42.5078ZM88.9995 40.1711V53.7164C88.9995 54.3636 88.4748 54.8882 87.8277 54.8882C87.1805 54.8882 86.6559 54.3636 86.6559 53.7164V40.1711C86.6559 39.5239 87.1805 38.9993 87.8277 38.9993C88.4748 38.9993 88.9995 39.5239 88.9995 40.1711ZM85.6559 40.1711C85.6559 38.9716 86.6283 37.9993 87.8277 37.9993C89.0271 37.9993 89.9995 38.9716 89.9995 40.1711V53.7164C89.9995 54.9159 89.0271 55.8882 87.8277 55.8882C86.6283 55.8882 85.6559 54.9159 85.6559 53.7164V40.1711Z" fill="white"/>
<path d="M67.7782 128.733C68.8131 126.02 71.415 124.228 74.3183 124.228H104.127C106.849 124.228 109.324 125.806 110.473 128.273L118.146 144.75C120.288 149.349 116.98 154.627 111.907 154.705L67.8818 155.376C62.9324 155.452 59.4703 150.507 61.235 145.882L67.7782 128.733Z" fill="white"/>
</svg>
