<svg width="92" height="89" viewBox="0 0 92 89" fill="none" xmlns="http://www.w3.org/2000/svg">
<path d="M37.355 70.6636L18.4712 50.3595C17.7194 49.5512 16.4549 49.5048 15.6459 50.2559L6.5488 58.7014C6.09014 59.1273 5.85725 59.7432 5.91946 60.366L7.05208 71.7034C7.1143 72.3262 6.88141 72.9422 6.42274 73.368L1.61294 77.8333C0.825706 78.5642 0.756398 79.7864 1.45596 80.6015L5.41234 85.2117C6.15163 86.0731 7.45888 86.1473 8.29082 85.3749L13.9341 80.1358C14.3472 79.7523 14.9018 79.5592 15.4624 79.617C20.3941 80.1256 28.4504 81.5714 29.7626 81.6071C30.6081 81.6302 34.7172 76.7748 37.4805 73.2127C38.0731 72.4488 38.0134 71.3715 37.355 70.6636Z" fill="#20D7FF"/>
<path d="M20.5258 42.7579L21.4437 42.3108C22.0311 42.0246 22.7212 42.0434 23.2921 42.3611L25.2812 43.468C26.038 43.8891 26.9798 43.7753 27.6145 43.1861L37.331 34.1655C37.6606 33.8595 38.0873 33.6674 38.5369 33.6539C42.2205 33.5428 42.5736 35.1975 42.7216 36.9874C42.7732 37.6111 42.5325 38.2279 42.0738 38.6537L32.1161 47.8982C31.3041 48.6521 31.2597 49.9226 32.0173 50.7312L38.363 57.5053C39.1029 58.2952 40.337 58.3531 41.1477 57.636L51.2441 48.7054C51.6238 48.3695 52.1192 48.1802 52.6234 48.2328C55.5031 48.5332 55.9278 50.0222 55.9609 51.5606C55.973 52.1234 55.7081 52.6538 55.2816 53.0213L44.9338 61.9388C44.2691 62.5116 44.0554 63.4508 44.4068 64.2548L44.9611 65.5231C45.2396 66.1603 45.167 66.8965 44.7696 67.4671L44.18 68.3135C43.4524 69.3581 41.947 69.4661 41.0778 68.5361L19.9405 45.9216C19.0218 44.9387 19.3162 43.3472 20.5258 42.7579Z" fill="#20D7FF"/>
<path d="M53.1376 16.9303L72.5254 37.1959C73.2733 37.9777 74.5073 38.023 75.3105 37.2981L84.6693 28.8518C85.1432 28.4242 85.3844 27.796 85.3187 27.1611L84.1552 15.9219C84.0895 15.287 84.3307 14.6589 84.8046 14.2312L89.6927 9.81971C90.5064 9.08537 90.5775 7.83293 89.8521 7.01128L85.7713 2.38916C85.0346 1.55473 83.7584 1.48233 82.9321 2.22809L77.0766 7.51263C76.6663 7.88292 76.1227 8.06862 75.5728 8.01343C70.5249 7.5068 62.2318 6.05324 60.8843 6.01653C60.0207 5.99299 55.8368 10.7978 53.0097 14.3399C52.3936 15.1118 52.4549 16.2168 53.1376 16.9303Z" fill="#20D7FF"/>
<rect width="31.2674" height="3.00851" rx="1.50426" transform="matrix(0.683386 0.730058 -0.737632 0.675203 49.458 17.4215)" fill="#20D7FF"/>
<rect width="7.80042" height="1.59748" rx="0.798742" transform="matrix(0.178823 0.983881 -0.984666 0.174451 39.072 6.29007)" fill="#20D7FF"/>
<rect width="11.2794" height="1.58826" rx="0.794131" transform="matrix(0.735666 0.677344 -0.685442 0.728127 27.3011 8.8028)" fill="#20D7FF"/>
<rect width="9.25092" height="1.58049" rx="0.790244" transform="matrix(0.999594 0.0284916 -0.0285199 0.999593 23.6577 20.8386)" fill="#20D7FF"/>
<rect width="8.65536" height="1.79542" rx="0.897712" transform="matrix(-0.181603 -0.983372 0.985139 -0.171757 69.6088 67.0666)" fill="#20D7FF"/>
<rect width="12.6085" height="1.77229" rx="0.886147" transform="matrix(-0.740329 -0.672244 0.69048 -0.723351 82.8444 64.2851)" fill="#20D7FF"/>
<rect width="10.403" height="1.75266" rx="0.876332" transform="matrix(-0.999594 -0.0284743 0.028538 -0.999593 86.9365 50.9396)" fill="#20D7FF"/>
</svg>
