<svg width="32" height="27" viewBox="0 0 32 27" fill="none" xmlns="http://www.w3.org/2000/svg">
<path d="M17.8173 0H2C0.89543 0 0 0.895431 0 2V25C0 26.1046 0.89543 27 2 27H17.8173C18.9218 27 19.8173 26.1046 19.8173 25V19.3609C19.8173 18.5759 19.1809 17.9396 18.3959 17.9396C17.611 17.9396 16.9746 18.5759 16.9746 19.3609V21.2852C16.9746 22.3898 16.0792 23.2852 14.9746 23.2852H5.2819C4.16446 23.2852 3.26379 22.3696 3.28217 21.2523L3.54125 5.50067C3.5592 4.40907 4.44923 3.53356 5.54098 3.53356H14.9746C16.0792 3.53356 16.9746 4.42899 16.9746 5.53356V7.72969C16.9746 8.51466 17.611 9.15101 18.3959 9.15101C19.1809 9.15101 19.8173 8.51466 19.8173 7.72969V2C19.8173 0.89543 18.9218 0 17.8173 0Z" fill="#20D7FF"/>
<path d="M5.95279 12.8835C5.56227 13.274 5.56227 13.9072 5.95279 14.2977L12.3168 20.6616C12.7073 21.0522 13.3404 21.0522 13.731 20.6616C14.1215 20.2711 14.1215 19.638 13.731 19.2474L8.07411 13.5906L13.731 7.93372C14.1215 7.5432 14.1215 6.91003 13.731 6.51951C13.3404 6.12898 12.7073 6.12898 12.3168 6.51951L5.95279 12.8835ZM32 12.5906L6.6599 12.5906V14.5906L32 14.5906V12.5906Z" fill="#20D7FF"/>
</svg>
