<svg width="177" height="166" viewBox="0 0 177 166" fill="none" xmlns="http://www.w3.org/2000/svg">
<rect x="2" y="120.169" width="173" height="43.8305" rx="2" stroke="white" stroke-width="4"/>
<mask id="path-2-inside-1_61_12" fill="white">
<rect x="27.2308" y="95.661" width="49.0154" height="16.8814" rx="2"/>
</mask>
<rect x="27.2308" y="95.661" width="49.0154" height="16.8814" rx="2" stroke="white" stroke-width="8" mask="url(#path-2-inside-1_61_12)"/>
<mask id="path-3-inside-2_61_12" fill="white">
<path fill-rule="evenodd" clip-rule="evenodd" d="M125.262 33.311C133.068 31.5523 138.877 24.8639 138.877 16.8814C138.877 7.55804 130.952 0 121.177 0C111.401 0 103.477 7.55804 103.477 16.8814C103.477 24.8639 109.286 31.5523 117.092 33.311V88.8812C104.941 90.8161 95.426 101.576 95.4859 107.139C95.5418 112.317 103.614 112.113 114.497 111.839C116.413 111.79 118.417 111.74 120.479 111.716C122.541 111.692 124.544 111.697 126.461 111.701C137.348 111.725 145.422 111.742 145.366 106.565C145.308 101.183 136.76 91.1383 125.262 88.9902V33.311Z"/>
</mask>
<path d="M125.262 33.311L124.382 29.4088L121.262 30.1119V33.311H125.262ZM117.092 33.311H121.092V30.1119L117.971 29.4088L117.092 33.311ZM117.092 88.8812L117.721 92.8314L121.092 92.2946V88.8812H117.092ZM95.4859 107.139L99.4857 107.096L95.4859 107.139ZM114.497 111.839L114.598 115.837L114.598 115.837L114.497 111.839ZM120.479 111.716L120.433 107.716L120.433 107.716L120.479 111.716ZM126.461 111.701L126.452 115.701L126.452 115.701L126.461 111.701ZM145.366 106.565L141.367 106.608L141.367 106.608L145.366 106.565ZM125.262 88.9902H121.262V92.3122L124.527 92.9222L125.262 88.9902ZM134.877 16.8814C134.877 22.8307 130.528 28.0243 124.382 29.4088L126.141 37.2132C135.608 35.0803 142.877 26.897 142.877 16.8814H134.877ZM121.177 4C128.924 4 134.877 9.94357 134.877 16.8814H142.877C142.877 5.17251 132.981 -4 121.177 -4V4ZM107.477 16.8814C107.477 9.94357 113.43 4 121.177 4V-4C109.373 -4 99.4769 5.17251 99.4769 16.8814H107.477ZM117.971 29.4088C111.826 28.0243 107.477 22.8307 107.477 16.8814H99.4769C99.4769 26.897 106.746 35.0803 116.213 37.2132L117.971 29.4088ZM113.092 33.311V88.8812H121.092V33.311H113.092ZM116.463 84.9309C109.444 86.0487 103.326 89.6742 98.9822 93.724C96.7997 95.7589 94.9788 97.9801 93.6819 100.181C92.4329 102.3 91.46 104.757 91.4862 107.183L99.4857 107.096C99.4819 106.741 99.6759 105.766 100.574 104.243C101.424 102.8 102.73 101.167 104.438 99.5751C107.875 96.3704 112.589 93.6486 117.721 92.8314L116.463 84.9309ZM91.4862 107.183C91.5135 109.718 92.6172 111.84 94.5415 113.29C96.2388 114.57 98.3465 115.159 100.276 115.479C104.127 116.119 109.321 115.97 114.598 115.837L114.397 107.84C108.79 107.981 104.506 108.072 101.586 107.587C100.131 107.346 99.5296 107.032 99.3576 106.902C99.3151 106.87 99.38 106.911 99.4425 107.035C99.5048 107.158 99.4869 107.21 99.4857 107.096L91.4862 107.183ZM114.598 115.837C116.518 115.789 118.494 115.739 120.525 115.716L120.433 107.716C118.339 107.74 116.309 107.792 114.397 107.84L114.598 115.837ZM120.525 115.716C122.555 115.692 124.532 115.697 126.452 115.701L126.47 107.701C124.557 107.697 122.526 107.692 120.433 107.716L120.525 115.716ZM126.452 115.701C131.731 115.713 136.927 115.741 140.763 115.013C142.685 114.649 144.778 114.012 146.446 112.694C148.336 111.202 149.394 109.057 149.366 106.522L141.367 106.608C141.368 106.722 141.349 106.671 141.408 106.548C141.467 106.424 141.531 106.382 141.488 106.416C141.317 106.551 140.722 106.879 139.272 107.154C136.363 107.705 132.078 107.713 126.47 107.701L126.452 115.701ZM149.366 106.522C149.342 104.231 148.456 101.908 147.291 99.8668C146.088 97.7606 144.406 95.6379 142.38 93.6849C138.345 89.7951 132.65 86.3014 125.996 85.0583L124.527 92.9222C129.371 93.8271 133.7 96.4297 136.828 99.4448C138.384 100.944 139.568 102.476 140.344 103.834C141.157 105.258 141.362 106.209 141.367 106.608L149.366 106.522ZM129.262 88.9902V33.311H121.262V88.9902H129.262Z" fill="white" mask="url(#path-3-inside-2_61_12)"/>
</svg>
