<svg width="118" height="112" viewBox="0 0 118 112" fill="none" xmlns="http://www.w3.org/2000/svg">
<rect x="50" y="98" width="18.125" height="11.0698" rx="5.53488" stroke="white" stroke-width="4"/>
<mask id="path-2-inside-1_25_95" fill="white">
<path fill-rule="evenodd" clip-rule="evenodd" d="M58.3542 0C39.0242 0 23.3542 15.67 23.3542 35V61.6977C23.3542 62.9147 23.4163 64.1173 23.5375 65.3023H15.6977C7.02809 65.3023 0 72.3304 0 81C0 89.6696 7.02809 96.6977 15.6977 96.6977H58.3542H59.6458H102.302C110.972 96.6977 118 89.6696 118 81C118 72.3304 110.972 65.3023 102.302 65.3023H94.4625C94.5837 64.1173 94.6458 62.9148 94.6458 61.6977V35C94.6458 15.67 78.9758 0 59.6458 0H58.3542Z"/>
</mask>
<path d="M23.5375 65.3023V69.3023H27.9677L27.5168 64.8952L23.5375 65.3023ZM94.4625 65.3023L90.4832 64.8952L90.0324 69.3023H94.4625V65.3023ZM27.3542 35C27.3542 17.8792 41.2333 4 58.3542 4V-4C36.8151 -4 19.3542 13.4609 19.3542 35H27.3542ZM27.3542 61.6977V35H19.3542V61.6977H27.3542ZM27.5168 64.8952C27.4093 63.8452 27.3542 62.7785 27.3542 61.6977H19.3542C19.3542 63.0509 19.4232 64.3894 19.5583 65.7094L27.5168 64.8952ZM15.6977 69.3023H23.5375V61.3023H15.6977V69.3023ZM4 81C4 74.5396 9.23723 69.3023 15.6977 69.3023V61.3023C4.81895 61.3023 -4 70.1213 -4 81H4ZM15.6977 92.6977C9.23723 92.6977 4 87.4604 4 81H-4C-4 91.8787 4.81895 100.698 15.6977 100.698V92.6977ZM58.3542 92.6977H15.6977V100.698H58.3542V92.6977ZM59.6458 92.6977H58.3542V100.698H59.6458V92.6977ZM102.302 92.6977H59.6458V100.698H102.302V92.6977ZM114 81C114 87.4604 108.763 92.6977 102.302 92.6977V100.698C113.181 100.698 122 91.8787 122 81H114ZM102.302 69.3023C108.763 69.3023 114 74.5396 114 81H122C122 70.1213 113.181 61.3023 102.302 61.3023V69.3023ZM94.4625 69.3023H102.302V61.3023H94.4625V69.3023ZM90.6458 61.6977C90.6458 62.7786 90.5907 63.8452 90.4832 64.8952L98.4417 65.7094C98.5768 64.3894 98.6458 63.051 98.6458 61.6977H90.6458ZM90.6458 35V61.6977H98.6458V35H90.6458ZM59.6458 4C76.7667 4 90.6458 17.8792 90.6458 35H98.6458C98.6458 13.4609 81.1849 -4 59.6458 -4V4ZM58.3542 4H59.6458V-4H58.3542V4Z" fill="white" mask="url(#path-2-inside-1_25_95)"/>
</svg>
