<svg width="15" height="15" viewBox="0 0 15 15" fill="none" xmlns="http://www.w3.org/2000/svg">
<rect x="6.10168" y="12.1884" width="2.8125" height="1.8995" rx="0.949749" fill="#20D7FF"/>
<path fill-rule="evenodd" clip-rule="evenodd" d="M7.5 0C4.99746 0 2.96875 2.02871 2.96875 4.53125V7.65719C2.96875 7.85162 2.98099 8.04318 3.00475 8.23116H1.97864C0.885868 8.23116 0 9.11703 0 10.2098C0 11.3026 0.885868 12.1884 1.97864 12.1884H7.5H13.0214C14.1141 12.1884 15 11.3026 15 10.2098C15 9.11703 14.1141 8.23116 13.0214 8.23116H11.9952C12.019 8.04318 12.0312 7.85162 12.0312 7.65719V4.53125C12.0312 2.02871 10.0025 0 7.5 0Z" fill="#20D7FF"/>
</svg>
