<svg width="120" height="120" viewBox="0 0 120 120" fill="none" xmlns="http://www.w3.org/2000/svg">
<mask id="path-1-inside-1_14_12" fill="white">
<path d="M45.8189 24.0958C44.5306 20.5141 40.6611 18.5056 37.1382 19.947C32.1158 22.0019 27.4328 24.687 23.2343 27.9296C17.3008 32.5121 12.4556 38.1146 8.98611 44.4049C5.51661 50.6951 3.49346 57.545 3.03662 64.5483C2.57977 71.5516 3.69855 78.5658 6.32659 85.1748C8.95464 91.7837 13.0384 97.853 18.3358 103.023C23.6332 108.192 30.0363 112.357 37.1653 115.27C44.2944 118.183 52.0043 119.784 59.8378 119.98C65.0368 120.11 70.22 119.618 75.2522 118.527C79.3736 117.633 81.3295 113.111 79.6427 109.246V109.246C78.1258 105.771 74.1906 104.113 70.4676 104.834C67.1311 105.48 63.7118 105.766 60.283 105.681C54.588 105.539 48.9829 104.374 43.8001 102.257C38.6173 100.139 33.9622 97.1114 30.111 93.3531C26.2599 89.5947 23.2909 85.1824 21.3803 80.3776C19.4698 75.5729 18.6564 70.4736 18.9885 65.3822C19.3207 60.2908 20.7915 55.3109 23.3138 50.7379C25.8361 46.1649 29.3586 42.0919 33.6723 38.7604C36.0047 36.959 38.5428 35.3943 41.2396 34.0898C44.9943 32.2735 47.2307 28.0206 45.8189 24.0958V24.0958Z"/>
</mask>
<path d="M45.8189 24.0958C44.5306 20.5141 40.6611 18.5056 37.1382 19.947C32.1158 22.0019 27.4328 24.687 23.2343 27.9296C17.3008 32.5121 12.4556 38.1146 8.98611 44.4049C5.51661 50.6951 3.49346 57.545 3.03662 64.5483C2.57977 71.5516 3.69855 78.5658 6.32659 85.1748C8.95464 91.7837 13.0384 97.853 18.3358 103.023C23.6332 108.192 30.0363 112.357 37.1653 115.27C44.2944 118.183 52.0043 119.784 59.8378 119.98C65.0368 120.11 70.22 119.618 75.2522 118.527C79.3736 117.633 81.3295 113.111 79.6427 109.246V109.246C78.1258 105.771 74.1906 104.113 70.4676 104.834C67.1311 105.48 63.7118 105.766 60.283 105.681C54.588 105.539 48.9829 104.374 43.8001 102.257C38.6173 100.139 33.9622 97.1114 30.111 93.3531C26.2599 89.5947 23.2909 85.1824 21.3803 80.3776C19.4698 75.5729 18.6564 70.4736 18.9885 65.3822C19.3207 60.2908 20.7915 55.3109 23.3138 50.7379C25.8361 46.1649 29.3586 42.0919 33.6723 38.7604C36.0047 36.959 38.5428 35.3943 41.2396 34.0898C44.9943 32.2735 47.2307 28.0206 45.8189 24.0958V24.0958Z" stroke="white" stroke-width="8" mask="url(#path-1-inside-1_14_12)"/>
<mask id="path-2-inside-2_14_12" fill="white">
<path d="M71.4116 23.4512C72.4824 19.7803 76.2559 17.5454 79.8647 18.8098C87.2093 21.3832 93.9203 25.2673 99.5769 30.2483C106.875 36.6746 112.163 44.702 114.912 53.5293C117.662 62.3566 117.777 71.6751 115.247 80.5548C113.31 87.3514 109.875 93.7091 105.169 99.2638C102.683 102.199 98.2962 102.223 95.3951 99.6973V99.6973C92.0027 96.7438 92.0055 91.5198 94.5855 87.8354C96.9173 84.5054 98.6692 80.8585 99.7634 77.0189C101.603 70.5634 101.519 63.7888 99.5202 57.3714C97.5212 50.9539 93.6771 45.118 88.3715 40.4461C84.9014 37.3904 80.8855 34.9026 76.5075 33.076C72.6973 31.4863 70.2554 27.4145 71.4116 23.4512V23.4512Z"/>
</mask>
<path d="M71.4116 23.4512C72.4824 19.7803 76.2559 17.5454 79.8647 18.8098C87.2093 21.3832 93.9203 25.2673 99.5769 30.2483C106.875 36.6746 112.163 44.702 114.912 53.5293C117.662 62.3566 117.777 71.6751 115.247 80.5548C113.31 87.3514 109.875 93.7091 105.169 99.2638C102.683 102.199 98.2962 102.223 95.3951 99.6973V99.6973C92.0027 96.7438 92.0055 91.5198 94.5855 87.8354C96.9173 84.5054 98.6692 80.8585 99.7634 77.0189C101.603 70.5634 101.519 63.7888 99.5202 57.3714C97.5212 50.9539 93.6771 45.118 88.3715 40.4461C84.9014 37.3904 80.8855 34.9026 76.5075 33.076C72.6973 31.4863 70.2554 27.4145 71.4116 23.4512V23.4512Z" stroke="white" stroke-width="8" mask="url(#path-2-inside-2_14_12)"/>
<rect x="54" y="2" width="12" height="73.1429" rx="6" stroke="white" stroke-width="4"/>
</svg>
