<svg width="17" height="16" viewBox="0 0 17 16" fill="none" xmlns="http://www.w3.org/2000/svg">
<rect y="11.3898" width="17" height="4.61017" rx="2.30508" fill="#20D7FF"/>
<rect x="2.61542" y="9.22034" width="4.70769" height="1.62712" rx="0.813559" fill="#20D7FF"/>
<path fill-rule="evenodd" clip-rule="evenodd" d="M12.0308 3.21069C12.7805 3.04117 13.3385 2.39651 13.3385 1.62712C13.3385 0.728486 12.5774 0 11.6385 0C10.6996 0 9.93848 0.728486 9.93848 1.62712C9.93848 2.39653 10.4964 3.0412 11.2462 3.2107V8.56686C10.0791 8.75335 9.16522 9.79044 9.17099 10.3267C9.17635 10.8257 9.95163 10.8061 10.9969 10.7796C11.181 10.775 11.3734 10.7701 11.5714 10.7678C11.7695 10.7655 11.9619 10.766 12.146 10.7664C13.1916 10.7687 13.9671 10.7704 13.9618 10.2714C13.9562 9.75257 13.1351 8.78442 12.0308 8.57738V3.21069Z" fill="#20D7FF"/>
</svg>
