<svg width="96" height="84" viewBox="0 0 96 84" fill="none" xmlns="http://www.w3.org/2000/svg">
<path d="M63.3486 31.6845C63.3486 48.6166 49.4059 62.3689 32.1743 62.3689C14.9427 62.3689 1 48.6166 1 31.6845C1 14.7523 14.9427 1 32.1743 1C49.4059 1 63.3486 14.7523 63.3486 31.6845Z" stroke="white" stroke-width="2"/>
<path d="M55.4553 31.6845C55.4553 43.8844 45.0557 53.8162 32.1743 53.8162C19.2929 53.8162 8.8933 43.8844 8.8933 31.6845C8.8933 19.4845 19.2929 9.5527 32.1743 9.5527C45.0557 9.5527 55.4553 19.4845 55.4553 31.6845Z" stroke="white"/>
<rect width="42.2995" height="12.0357" transform="matrix(0.786561 0.617513 -0.629206 0.777238 62.7289 48.2811)" fill="white"/>
</svg>
